<?xml version="1.0" encoding="UTF-8" standalone="no"?>
<svg
   xmlns:dc="http://purl.org/dc/elements/1.1/"
   xmlns:cc="http://creativecommons.org/ns#"
   xmlns:rdf="http://www.w3.org/1999/02/22-rdf-syntax-ns#"
   xmlns:svg="http://www.w3.org/2000/svg"
   xmlns="http://www.w3.org/2000/svg"
   xmlns:sodipodi="http://sodipodi.sourceforge.net/DTD/sodipodi-0.dtd"
   xmlns:inkscape="http://www.inkscape.org/namespaces/inkscape"
   inkscape:version="1.0 (4035a4fb49, 2020-05-01)"
   sodipodi:docname="descriptionIcon.svg"
   id="svg298"
   width="32px"
   viewBox="0 0 32 32"
   version="1.1"
   height="32px">
  <metadata
     id="metadata302">
    <rdf:RDF>
      <cc:Work
         rdf:about="">
        <dc:format>image/svg+xml</dc:format>
        <dc:type
           rdf:resource="http://purl.org/dc/dcmitype/StillImage" />
      </cc:Work>
    </rdf:RDF>
  </metadata>
  <sodipodi:namedview
     inkscape:current-layer="svg298"
     inkscape:window-maximized="1"
     inkscape:window-y="-8"
     inkscape:window-x="-8"
     inkscape:cy="16"
     inkscape:cx="16"
     inkscape:zoom="26.5625"
     showgrid="false"
     id="namedview300"
     inkscape:window-height="1017"
     inkscape:window-width="1920"
     inkscape:pageshadow="2"
     inkscape:pageopacity="0"
     guidetolerance="10"
     gridtolerance="10"
     objecttolerance="10"
     borderopacity="1"
     bordercolor="#666666"
     pagecolor="#ffffff" />
  <title
     id="title289" />
  <desc
     id="desc291" />
  <defs
     id="defs293" />
  <g
     stroke-width="1"
     stroke="none"
     id="Page-1"
     fill-rule="evenodd"
     fill="none">
    <g
       id="icon-44-note-text"
       fill="#157EFB">
      <path
         id="note-text"
         d="M6,11 L6,26.0012539 C6,26.5613852 6.45106594,27 7.00748397,27 L21,27 L21,22.0059191 C21,20.8865548 21.8944962,20 22.9979131,20 L27,20 L27,11 L6,11 L6,11 L6,11 Z M6,10 L6,6.99874609 C6,6.44715386 6.43861485,6 6.99874609,6 L26.0012539,6 C26.5528461,6 27,6.44994876 27,7.00684547 L27,10 L6,10 L6,10 Z M21.5,28 L7.00010618,28 C5.89547804,28 5,27.0983727 5,25.9991358 L5,7.00086422 C5,5.89581743 5.90162726,5 7.00086422,5 L25.9991358,5 C27.1041826,5 28,5.89451376 28,6.99406028 L28,20.5 L28,21 L22,28 L21.5,28 L21.5,28 L21.5,28 Z M22,26.5 L22,22.0087848 C22,21.4516483 22.4506511,21 22.9967388,21 L26.6999512,21 L22,26.5 L22,26.5 Z M8,14 L8,15 L25,15 L25,14 L8,14 L8,14 Z M8,17 L8,18 L25,18 L25,17 L8,17 L8,17 Z M8,20 L8,21 L19,21 L19,20 L8,20 L8,20 Z M8,23 L8,24 L19,24 L19,23 L8,23 L8,23 Z" />
    </g>
  </g>
  <path
     id="path304"
     d="m 6.0243562,8.3858824 c 7.891e-4,-1.5180369 0.00432,-1.5983156 0.077424,-1.76 C 6.2046058,6.3984612 6.3793317,6.2212457 6.6070588,6.1134046 l 0.1882353,-0.08914 9.6779999,-3.679e-4 c 10.63162,-4.04e-4 9.85536,-0.017433 10.146551,0.2225913 0.07201,0.059354 0.181176,0.1986463 0.242597,0.3095378 l 0.111676,0.2016209 0.01128,1.6094117 0.01128,1.6094118 H 16.510107 6.0235294 Z"
     style="fill:#ffffff;stroke-width:0.0376471" />
  <path
     id="path306"
     d="M 6.5129412,27.91185 C 5.8630779,27.739357 5.3403951,27.244365 5.1129115,26.585993 L 5.0258824,26.334118 V 16.489412 6.6447059 l 0.09782,-0.267371 C 5.31473,5.8551979 5.6569939,5.4631472 6.1180516,5.2383442 6.583111,5.0115902 5.8829039,5.0258824 16.527059,5.0258824 c 9.485132,0 9.813855,0.00231 10.014117,0.070484 0.699243,0.2380256 1.198071,0.7533895 1.375897,1.4215053 0.04573,0.171799 0.05387,1.2735506 0.05425,7.3425273 l 4.47e-4,7.140398 -2.98353,3.484109 -2.983529,3.484109 -7.642353,-0.0011 C 7.7846502,27.966963 6.6911548,27.959153 6.5129412,27.91185 Z M 21.007343,24.48 c 1.88e-4,-1.586519 0.01512,-2.643082 0.03953,-2.795294 0.05194,-0.323904 0.286833,-0.800464 0.506299,-1.02722 0.221902,-0.229271 0.506177,-0.418032 0.791833,-0.52578 0.222173,-0.0838 0.246628,-0.08475 2.454997,-0.0952 l 2.230588,-0.01056 V 15.509445 10.992941 H 16.508235 5.9858824 l 3.689e-4,7.614118 3.689e-4,7.614117 0.088023,0.189024 c 0.1440598,0.309361 0.3781953,0.505591 0.6911946,0.579293 0.080314,0.01891 3.2159283,0.03518 7.1918112,0.03731 l 7.04941,0.0038 L 21.00736,24.48 Z m 3.361494,-0.717718 c 1.268853,-1.484314 2.320495,-2.720636 2.336983,-2.747382 0.02439,-0.03956 -0.341049,-0.04658 -1.959098,-0.03765 -1.819727,0.01005 -2.001896,0.01675 -2.139663,0.0787 -0.188553,0.08479 -0.414332,0.300233 -0.520837,0.496985 -0.08083,0.149324 -0.0816,0.170765 -0.092,2.553474 -0.0072,1.65237 0.0017,2.395348 0.02856,2.378752 0.02148,-0.01327 1.077201,-1.238571 2.346055,-2.722885 z M 27.023031,8.3858824 C 27.012172,6.8165463 27.008872,6.7515188 26.931796,6.5882353 26.835357,6.3839295 26.65542,6.1968739 26.449051,6.0863915 l -0.15258,-0.081686 -9.730604,-0.0097 C 5.5924948,5.9840737 6.6152501,5.9552821 6.2861387,6.2843935 5.9870646,6.5834676 5.9858824,6.5918796 5.9858824,8.4208241 V 10.014118 H 16.510089 27.034296 Z"
     style="fill:#ffffff;stroke-width:0.0376471" />
  <path
     id="path308"
     d="m 8.0188235,14.494118 v -0.489412 h 8.4894115 8.489412 v 0.489412 0.489411 H 16.508235 8.0188235 Z"
     style="fill:#ffffff;stroke-width:0.0376471" />
  <path
     id="path310"
     d="m 8.0188235,17.505882 v -0.489411 h 8.4894115 8.489412 v 0.489411 0.489412 H 16.508235 8.0188235 Z"
     style="fill:#ffffff;stroke-width:0.0376471" />
  <path
     id="path312"
     d="m 8.0188235,20.498824 v -0.470589 h 5.4776475 5.477647 v 0.470589 0.470588 H 13.496471 8.0188235 Z"
     style="fill:#ffffff;stroke-width:0.0376471" />
  <path
     id="path314"
     d="M 6.7889687,26.956826 C 6.6051318,26.913039 6.3379777,26.741788 6.227454,26.596884 6.0148295,26.318119 6.0269682,26.797605 6.0251818,18.607059 l -0.00165,-7.576471 H 16.508235 26.992941 v 4.48 4.48 h -2.137973 c -1.772002,0 -2.174814,0.0096 -2.353201,0.05606 -0.665332,0.173297 -1.208341,0.680417 -1.428586,1.334166 -0.08245,0.244739 -0.08349,0.276503 -0.09542,2.929774 l -0.01206,2.682353 -7.028733,-0.0039 c -3.865804,-0.0021 -7.0824037,-0.01664 -7.1480003,-0.03226 z M 19.011765,23.491765 V 22.964706 H 13.496471 7.9811765 v 0.527059 0.527059 h 5.5152945 5.515294 z m 0,-2.992941 V 19.990588 H 13.496471 7.9811765 v 0.508236 0.508235 h 5.5152945 5.515294 z m 6.01518,-3.002353 0.01047,-0.517647 H 16.509298 7.9811765 v 0.52714 0.527141 l 8.5176475,-0.0095 8.517647,-0.0095 z m 0,-2.992942 -0.01047,-0.517647 -8.517647,-0.0095 -8.5176475,-0.0095 v 0.527141 0.52714 h 8.5281215 8.528121 z"
     style="fill:#ffffff;stroke-width:0.0376471" />
  <path
     id="path316"
     d="m 8.0188235,23.491765 v -0.489412 h 5.4776475 5.477647 v 0.489412 0.489411 H 13.496471 8.0188235 Z"
     style="fill:#ffffff;stroke-width:0.0376471" />
</svg>
