<?xml version="1.0" encoding="UTF-8" standalone="no"?>
<svg
   xmlns:dc="http://purl.org/dc/elements/1.1/"
   xmlns:cc="http://creativecommons.org/ns#"
   xmlns:rdf="http://www.w3.org/1999/02/22-rdf-syntax-ns#"
   xmlns:svg="http://www.w3.org/2000/svg"
   xmlns="http://www.w3.org/2000/svg"
   xmlns:sodipodi="http://sodipodi.sourceforge.net/DTD/sodipodi-0.dtd"
   xmlns:inkscape="http://www.inkscape.org/namespaces/inkscape"
   inkscape:version="1.0 (4035a4fb49, 2020-05-01)"
   sodipodi:docname="wi-barometer.svg"
   xml:space="preserve"
   style="enable-background:new 0 0 30 30;"
   viewBox="0 0 30 30"
   y="0px"
   x="0px"
   id="Layer_1"
   version="1.1"><metadata
   id="metadata78"><rdf:RDF><cc:Work
       rdf:about=""><dc:format>image/svg+xml</dc:format><dc:type
         rdf:resource="http://purl.org/dc/dcmitype/StillImage" /></cc:Work></rdf:RDF></metadata><defs
   id="defs76" /><sodipodi:namedview
   inkscape:current-layer="Layer_1"
   inkscape:window-maximized="1"
   inkscape:window-y="-8"
   inkscape:window-x="-8"
   inkscape:cy="15"
   inkscape:cx="15"
   inkscape:zoom="28.333333"
   showgrid="false"
   id="namedview74"
   inkscape:window-height="1017"
   inkscape:window-width="1920"
   inkscape:pageshadow="2"
   inkscape:pageopacity="0"
   guidetolerance="10"
   gridtolerance="10"
   objecttolerance="10"
   borderopacity="1"
   bordercolor="#666666"
   pagecolor="#ffffff" />
<path
   id="path71"
   d="M7.69,13.2c0-0.99,0.19-1.94,0.58-2.85c0.39-0.91,0.91-1.68,1.57-2.33s1.44-1.17,2.34-1.56c0.9-0.39,1.85-0.58,2.84-0.58  c0.99,0,1.94,0.19,2.85,0.58c0.9,0.39,1.68,0.91,2.33,1.56c0.65,0.65,1.17,1.43,1.56,2.33s0.58,1.85,0.58,2.85  c0,1.62-0.48,3.06-1.44,4.34c-0.96,1.27-2.2,2.14-3.71,2.61v3.29h-4.24v-3.25c-1.54-0.45-2.81-1.32-3.79-2.61S7.69,14.83,7.69,13.2z   M9.3,13.2c0,1.55,0.56,2.88,1.69,3.99c1.11,1.12,2.45,1.68,4.02,1.68c1.03,0,1.99-0.25,2.86-0.76c0.88-0.51,1.57-1.2,2.09-2.07  c0.51-0.87,0.77-1.82,0.77-2.85c0-0.77-0.15-1.5-0.45-2.21s-0.71-1.31-1.22-1.82c-0.51-0.51-1.12-0.92-1.83-1.22  c-0.71-0.3-1.44-0.45-2.21-0.45c-0.77,0-1.5,0.15-2.21,0.45s-1.31,0.71-1.82,1.22c-0.51,0.51-0.92,1.12-1.22,1.82  C9.45,11.7,9.3,12.43,9.3,13.2z M9.88,13.56v-0.72h2.17v0.72H9.88z M10.97,10.02l0.52-0.52l1.52,1.52l-0.52,0.53L10.97,10.02z   M13.5,14.95c0-0.42,0.15-0.78,0.44-1.09c0.29-0.31,0.65-0.47,1.06-0.48l2.73-4.49l0.66,0.35l-2.02,4.83  c0.18,0.25,0.26,0.54,0.26,0.88c0,0.44-0.15,0.81-0.46,1.11c-0.31,0.3-0.68,0.45-1.12,0.45c-0.43,0-0.8-0.15-1.1-0.45  C13.65,15.76,13.5,15.39,13.5,14.95z M14.81,10.28V8.12h0.69v2.17H14.81z M17.75,13.55v-0.74h2.17v0.74H17.75z" />
<path
   id="path80"
   d="m 12.952941,21.802778 v -1.632516 l -0.400928,-0.13537 C 10.55487,19.360571 8.8362884,17.648074 8.1199421,15.618512 7.2896547,13.266131 7.7400541,10.627537 9.3099468,8.6470588 9.530645,8.3686397 10.069404,7.8257445 10.366302,7.5825934 11.151337,6.9396719 12.201984,6.399527 13.164706,6.1439145 c 2.343763,-0.6222932 4.805797,-0.037381 6.688235,1.5889436 1.258906,1.087626 2.166306,2.7793289 2.398326,4.4712969 0.108577,0.791774 0.05787,1.919873 -0.120334,2.677128 -0.554452,2.356085 -2.418177,4.402782 -4.704462,5.166327 l -0.238236,0.07956 v 1.654061 1.65406 h -2.117647 -2.117647 z m 2.753867,-2.957584 c 0.700087,-0.08698 1.243348,-0.247813 1.84123,-0.545079 0.672506,-0.334369 1.355393,-0.855673 1.793215,-1.368909 1.506995,-1.76657 1.827082,-4.115072 0.844429,-6.195621 C 19.418028,9.1102516 17.978838,7.9875566 16.143337,7.582202 15.660707,7.4756174 14.523355,7.4670379 13.994118,7.5659896 13.250106,7.7050978 12.454229,8.0311157 11.805882,8.4623645 11.321993,8.7842244 10.611805,9.4940149 10.296392,9.97101 c -0.4320289,0.653351 -0.7504623,1.410811 -0.9123308,2.170166 -0.1151937,0.540396 -0.1165544,1.575763 -0.00282,2.143333 0.2601489,1.298189 0.9287658,2.393715 2.0187558,3.307723 0.851018,0.713618 1.827234,1.128295 2.982353,1.266844 0.242369,0.02907 1.046594,0.02064 1.324455,-0.01388 z"
   style="fill:#ffffff;stroke-width:0.0352941" /><path
   id="path82"
   d="m 14.5616,16.408118 c -0.878059,-0.301964 -1.28955,-1.296238 -0.88142,-2.129749 0.231149,-0.472068 0.733147,-0.833437 1.213938,-0.873864 0.123325,-0.01037 0.125725,-0.014 1.453141,-2.198623 0.731287,-1.203529 1.343838,-2.2110266 1.361224,-2.2388831 0.02599,-0.041642 0.0814,-0.023902 0.311564,0.099755 0.153974,0.082722 0.292395,0.1624264 0.307603,0.1771214 0.01521,0.014695 -0.423074,1.1040497 -0.973959,2.4207877 l -1.001609,2.394069 0.09838,0.195042 c 0.264438,0.524252 0.195767,1.172293 -0.176059,1.66144 -0.145043,0.190808 -0.481326,0.417997 -0.734433,0.496173 -0.304914,0.09418 -0.698837,0.09286 -0.978371,-0.0033 z"
   style="fill:#ffffff;stroke-width:0.0352941" /><path
   id="path84"
   d="M 11.735611,10.765023 10.995382,10.024164 11.24118,9.7764672 11.486978,9.5287709 12.21996,10.261129 c 0.403139,0.402797 0.732981,0.748841 0.732981,0.768987 0,0.03547 -0.425786,0.475766 -0.460088,0.475766 -0.0094,0 -0.350116,-0.333386 -0.757242,-0.740859 z"
   style="fill:#ffffff;stroke-width:0.0352941" /><path
   id="path86"
   d="m 9.8823529,13.2 v -0.352941 h 1.0764711 1.07647 V 13.2 13.552941 h -1.07647 -1.0764711 z"
   style="fill:#ffffff;stroke-width:0.0352941" /><path
   id="path88"
   d="M 14.823529,9.2117647 V 8.1529412 h 0.335295 0.335294 v 1.0588235 1.0588233 h -0.335294 -0.335295 z"
   style="fill:#ffffff;stroke-width:0.0352941" /><path
   id="path90"
   d="m 17.752941,13.164706 v -0.352941 h 1.076471 1.07647 v 0.352941 0.352941 h -1.07647 -1.076471 z"
   style="fill:#ffffff;stroke-width:0.0352941" /></svg>
