<?xml version="1.0" encoding="UTF-8" standalone="no"?>
<svg
   xmlns:dc="http://purl.org/dc/elements/1.1/"
   xmlns:cc="http://creativecommons.org/ns#"
   xmlns:rdf="http://www.w3.org/1999/02/22-rdf-syntax-ns#"
   xmlns:svg="http://www.w3.org/2000/svg"
   xmlns="http://www.w3.org/2000/svg"
   xmlns:sodipodi="http://sodipodi.sourceforge.net/DTD/sodipodi-0.dtd"
   xmlns:inkscape="http://www.inkscape.org/namespaces/inkscape"
   inkscape:version="1.0 (4035a4fb49, 2020-05-01)"
   sodipodi:docname="wi-cloud.svg"
   xml:space="preserve"
   style="enable-background:new 0 0 30 30;"
   viewBox="0 0 30 30"
   y="0px"
   x="0px"
   id="Layer_1"
   version="1.1"><metadata
   id="metadata270"><rdf:RDF><cc:Work
       rdf:about=""><dc:format>image/svg+xml</dc:format><dc:type
         rdf:resource="http://purl.org/dc/dcmitype/StillImage" /></cc:Work></rdf:RDF></metadata><defs
   id="defs268" /><sodipodi:namedview
   inkscape:current-layer="Layer_1"
   inkscape:window-maximized="1"
   inkscape:window-y="-8"
   inkscape:window-x="-8"
   inkscape:cy="15"
   inkscape:cx="15"
   inkscape:zoom="28.333333"
   showgrid="false"
   id="namedview266"
   inkscape:window-height="1017"
   inkscape:window-width="1920"
   inkscape:pageshadow="2"
   inkscape:pageopacity="0"
   guidetolerance="10"
   gridtolerance="10"
   objecttolerance="10"
   borderopacity="1"
   bordercolor="#666666"
   pagecolor="#ffffff" />
<path
   id="path263"
   d="M4.61,16.88c0-1.15,0.36-2.17,1.08-3.07c0.72-0.9,1.63-1.48,2.74-1.73c0.31-1.37,1.02-2.49,2.11-3.37s2.35-1.32,3.76-1.32  c1.38,0,2.61,0.43,3.69,1.28s1.78,1.95,2.1,3.29h0.33c0.9,0,1.73,0.22,2.49,0.65s1.37,1.03,1.81,1.79c0.44,0.76,0.67,1.58,0.67,2.48  c0,0.88-0.21,1.7-0.63,2.45s-1,1.35-1.73,1.8c-0.73,0.45-1.54,0.69-2.41,0.72H9.41c-1.34-0.06-2.47-0.57-3.4-1.53  C5.08,19.37,4.61,18.22,4.61,16.88z M6.32,16.88c0,0.87,0.3,1.62,0.9,2.26s1.33,0.98,2.19,1.03h11.19c0.86-0.04,1.59-0.39,2.19-1.03  c0.61-0.64,0.91-1.4,0.91-2.26c0-0.88-0.33-1.63-0.98-2.27c-0.65-0.64-1.42-0.96-2.32-0.96H18.8c-0.11,0-0.17-0.06-0.17-0.18  l-0.07-0.57c-0.11-1.08-0.58-1.99-1.4-2.72c-0.82-0.73-1.77-1.1-2.86-1.1c-1.09,0-2.05,0.37-2.85,1.1  c-0.81,0.73-1.27,1.64-1.37,2.72l-0.08,0.57c0,0.12-0.07,0.18-0.2,0.18H9.27c-0.84,0.1-1.54,0.46-2.1,1.07S6.32,16.05,6.32,16.88z" />
<path
   id="path272"
   d="M 9.1183041,21.810898 C 7.944709,21.687269 6.9594935,21.21851 6.1194398,20.384061 5.3695716,19.639195 4.9306035,18.852941 4.7240476,17.884718 4.6219074,17.405939 4.6126959,16.446952 4.7057397,15.978709 4.9110767,14.945352 5.3964219,14.07607 6.1994432,13.303399 6.7318838,12.791082 7.3137077,12.446413 8.0426294,12.211506 l 0.401453,-0.129374 0.1132704,-0.385184 C 8.9271858,10.43931 9.596862,9.4758157 10.694118,8.6226858 c 1.942831,-1.5105756 4.732555,-1.6223921 6.803268,-0.2726857 0.841384,0.5484205 1.565987,1.3231334 2.027438,2.1676469 0.15051,0.275453 0.356667,0.786609 0.46719,1.158378 l 0.08057,0.271034 0.560764,0.04101 c 0.851843,0.0623 1.359261,0.191672 2.002754,0.510645 1.391416,0.68971 2.308249,1.880615 2.640574,3.429932 0.102713,0.478853 0.109209,1.361685 0.01368,1.859591 -0.185013,0.964337 -0.617751,1.811593 -1.281537,2.509119 -0.836747,0.879278 -1.887834,1.390721 -3.109625,1.513096 -0.424767,0.04255 -11.3773259,0.04296 -11.7808979,4.48e-4 z m 12.2098109,-1.73769 c 0.591019,-0.185379 0.996434,-0.437509 1.440567,-0.8959 0.443713,-0.457957 0.710802,-0.931145 0.863743,-1.530249 0.05275,-0.20662 0.06693,-0.380877 0.06463,-0.794118 -0.0026,-0.468168 -0.01388,-0.565371 -0.09749,-0.840263 C 23.428846,15.4514 23.140912,14.989557 22.699493,14.568973 22.24698,14.137818 21.773592,13.8704 21.205337,13.724917 c -0.259571,-0.06645 -0.421399,-0.07711 -1.397253,-0.09197 -1.261511,-0.01922 -1.149393,0.01663 -1.188296,-0.380001 -0.134099,-1.367195 -0.49707,-2.168924 -1.354207,-2.991155 C 16.61502,9.6377171 15.877033,9.2617558 15.034325,9.1250907 13.615901,8.8950598 12.287134,9.3189904 11.277942,10.323529 c -0.726206,0.722859 -1.06181,1.439633 -1.218322,2.602067 -0.03992,0.29651 -0.086857,0.572649 -0.1042996,0.613642 -0.029142,0.06849 -0.067006,0.07609 -0.4670464,0.0937 -0.5149736,0.02267 -0.8761588,0.108562 -1.2915473,0.307132 -0.3681891,0.176007 -0.5546649,0.304521 -0.8605098,0.593039 -0.4428165,0.417731 -0.7587968,0.922143 -0.9156305,1.461658 -0.1077078,0.370519 -0.1334665,1.144953 -0.051532,1.549314 0.1273166,0.628333 0.3995956,1.142189 0.8646124,1.63173 0.373863,0.393581 0.8077092,0.678647 1.2747355,0.837587 0.5109406,0.173885 0.3359605,0.169568 6.6151267,0.163184 l 5.894118,-0.006 z"
   style="fill:#ffffff;stroke-width:0.0352941" /></svg>
