<?xml version="1.0" encoding="UTF-8" standalone="no"?>
<svg
   xmlns:dc="http://purl.org/dc/elements/1.1/"
   xmlns:cc="http://creativecommons.org/ns#"
   xmlns:rdf="http://www.w3.org/1999/02/22-rdf-syntax-ns#"
   xmlns:svg="http://www.w3.org/2000/svg"
   xmlns="http://www.w3.org/2000/svg"
   xmlns:sodipodi="http://sodipodi.sourceforge.net/DTD/sodipodi-0.dtd"
   xmlns:inkscape="http://www.inkscape.org/namespaces/inkscape"
   inkscape:version="1.0 (4035a4fb49, 2020-05-01)"
   sodipodi:docname="wi-humidity.svg"
   xml:space="preserve"
   style="enable-background:new 0 0 30 30;"
   viewBox="0 0 30 30"
   y="0px"
   x="0px"
   id="Layer_1"
   version="1.1"><metadata
   id="metadata154"><rdf:RDF><cc:Work
       rdf:about=""><dc:format>image/svg+xml</dc:format><dc:type
         rdf:resource="http://purl.org/dc/dcmitype/StillImage" /></cc:Work></rdf:RDF></metadata><defs
   id="defs152" /><sodipodi:namedview
   inkscape:current-layer="Layer_1"
   inkscape:window-maximized="1"
   inkscape:window-y="-8"
   inkscape:window-x="-8"
   inkscape:cy="15"
   inkscape:cx="15"
   inkscape:zoom="28.333333"
   showgrid="false"
   id="namedview150"
   inkscape:window-height="1017"
   inkscape:window-width="1920"
   inkscape:pageshadow="2"
   inkscape:pageopacity="0"
   guidetolerance="10"
   gridtolerance="10"
   objecttolerance="10"
   borderopacity="1"
   bordercolor="#666666"
   pagecolor="#ffffff" />
<path
   id="path147"
   d="M7.56,17.19c0-0.88,0.24-1.89,0.72-3.03s1.1-2.25,1.86-3.31c1.56-2.06,2.92-3.62,4.06-4.67l0.75-0.72  c0.25,0.26,0.53,0.5,0.83,0.72c0.41,0.42,1.04,1.11,1.88,2.09s1.57,1.85,2.17,2.65c0.71,1.01,1.32,2.1,1.81,3.25  s0.74,2.16,0.74,3.03c0,1-0.19,1.95-0.58,2.86c-0.39,0.91-0.91,1.7-1.57,2.36c-0.66,0.66-1.45,1.19-2.37,1.58  c-0.92,0.39-1.89,0.59-2.91,0.59c-1,0-1.95-0.19-2.86-0.57c-0.91-0.38-1.7-0.89-2.36-1.55c-0.66-0.65-1.19-1.44-1.58-2.35  S7.56,18.23,7.56,17.19z M9.82,14.26c0,0.83,0.17,1.49,0.52,1.99c0.35,0.49,0.88,0.74,1.59,0.74c0.72,0,1.25-0.25,1.61-0.74  c0.35-0.49,0.53-1.15,0.54-1.99c-0.01-0.84-0.19-1.5-0.54-2c-0.35-0.49-0.89-0.74-1.61-0.74c-0.71,0-1.24,0.25-1.59,0.74  C9.99,12.76,9.82,13.42,9.82,14.26z M11.39,14.26c0-0.15,0-0.27,0-0.35s0.01-0.19,0.02-0.33c0.01-0.14,0.02-0.25,0.05-0.32  s0.05-0.16,0.09-0.24c0.04-0.08,0.09-0.15,0.15-0.18c0.07-0.04,0.14-0.06,0.23-0.06c0.14,0,0.25,0.04,0.33,0.12s0.14,0.21,0.17,0.38  c0.03,0.18,0.05,0.32,0.06,0.45s0.01,0.3,0.01,0.52c0,0.23,0,0.4-0.01,0.52c-0.01,0.12-0.03,0.27-0.06,0.45  c-0.03,0.17-0.09,0.3-0.17,0.38s-0.19,0.12-0.33,0.12c-0.09,0-0.16-0.02-0.23-0.06c-0.07-0.04-0.12-0.1-0.15-0.18  c-0.04-0.08-0.07-0.17-0.09-0.24c-0.02-0.08-0.04-0.19-0.05-0.32c-0.01-0.14-0.02-0.25-0.02-0.32S11.39,14.41,11.39,14.26z   M11.98,22.01h1.32l4.99-10.74h-1.35L11.98,22.01z M16.28,19.02c0.01,0.84,0.2,1.5,0.55,2c0.35,0.49,0.89,0.74,1.6,0.74  c0.72,0,1.25-0.25,1.6-0.74c0.35-0.49,0.52-1.16,0.53-2c-0.01-0.84-0.18-1.5-0.53-1.99c-0.35-0.49-0.88-0.74-1.6-0.74  c-0.71,0-1.25,0.25-1.6,0.74C16.47,17.52,16.29,18.18,16.28,19.02z M17.85,19.02c0-0.23,0-0.4,0.01-0.52  c0.01-0.12,0.03-0.27,0.06-0.45s0.09-0.3,0.17-0.38s0.19-0.12,0.33-0.12c0.09,0,0.17,0.02,0.24,0.06c0.07,0.04,0.12,0.1,0.16,0.19  c0.04,0.09,0.07,0.17,0.1,0.24s0.04,0.18,0.05,0.32l0.01,0.32l0,0.34c0,0.16,0,0.28,0,0.35l-0.01,0.32l-0.05,0.32l-0.1,0.24  l-0.16,0.19l-0.24,0.06c-0.14,0-0.25-0.04-0.33-0.12s-0.14-0.21-0.17-0.38c-0.03-0.18-0.05-0.33-0.06-0.45S17.85,19.25,17.85,19.02z  " />
<path
   id="path156"
   d="M 14.117647,24.528083 C 12.786802,24.366915 11.294905,23.751994 10.323529,22.964246 8.7952854,21.7249 7.8261312,19.933493 7.6207149,17.968302 7.5631277,17.417373 7.5974144,16.532353 7.6940067,16.076471 7.9280886,14.971683 8.4794246,13.614082 9.2205042,12.317647 9.85041,11.215698 11.020192,9.6687625 12.528429,7.943204 13.013653,7.3880644 14.379983,6.0003789 14.781317,5.6551031 l 0.1872,-0.1610513 0.218683,0.2129721 c 0.120275,0.1171347 0.30044,0.2762084 0.400366,0.3534971 0.581604,0.4498484 3.643614,4.017583 4.393162,5.118742 0.92267,1.355492 1.767704,3.093187 2.128863,4.37771 0.31745,1.129068 0.324524,2.278909 0.02123,3.450845 -0.409873,1.583755 -1.372331,3.05993 -2.607768,3.999678 -0.985645,0.749742 -2.104432,1.240176 -3.323051,1.456702 -0.462647,0.0822 -1.634271,0.118148 -2.082353,0.06388 z m -0.276546,-3.626237 c 0.284664,-0.615721 1.362761,-2.938022 2.395771,-5.16067 1.033011,-2.222647 1.923116,-4.140441 1.978012,-4.261764 l 0.09981,-0.220588 h -0.69626 -0.696259 l -2.465537,5.338235 c -1.356045,2.936029 -2.473175,5.358088 -2.482511,5.382353 -0.01323,0.03438 0.133789,0.04388 0.666214,0.04302 l 0.683187,-0.0011 0.517572,-1.119493 z m 5.323605,0.769547 c 0.775487,-0.259895 1.239031,-0.961672 1.375375,-2.082232 0.09776,-0.803437 -0.01988,-1.662864 -0.308681,-2.255129 -0.35639,-0.730875 -1.053623,-1.107504 -1.948325,-1.05244 -0.591009,0.03637 -1.050912,0.24087 -1.371372,0.609781 -0.174047,0.200363 -0.431269,0.713179 -0.511814,1.020392 -0.163891,0.625109 -0.167463,1.533497 -0.0085,2.15109 0.243111,0.94426 0.734077,1.485505 1.507304,1.661664 0.325714,0.0742 0.966238,0.04733 1.26597,-0.05313 z M 12.6,16.921457 c 0.965466,-0.292153 1.482353,-1.220597 1.482353,-2.662633 0,-0.797554 -0.169966,-1.467403 -0.496037,-1.954919 -0.358096,-0.535398 -0.901663,-0.796797 -1.656904,-0.796797 -0.927222,0 -1.551545,0.418604 -1.877924,1.259134 -0.1860413,0.479117 -0.2223567,0.732169 -0.2192649,1.527876 0.00257,0.660569 0.010702,0.752945 0.093485,1.061575 0.2530919,0.94356 0.7659979,1.477134 1.5571149,1.61986 0.25617,0.04622 0.886553,0.01569 1.117176,-0.0541 z"
   style="fill:#ffffff;stroke-width:0.0352941" /><path
   id="path158"
   d="m 11.788235,15.682738 c -0.125093,-0.04994 -0.219242,-0.184054 -0.292369,-0.416482 -0.07171,-0.22792 -0.07799,-0.316164 -0.07553,-1.060374 0.0025,-0.76085 0.0078,-0.82488 0.08426,-1.020883 0.112024,-0.287184 0.21197,-0.373234 0.433503,-0.373234 0.150858,0 0.190876,0.01603 0.291684,0.116837 0.134124,0.134125 0.176872,0.26799 0.227551,0.712574 0.04666,0.409316 0.04633,0.817238 -10e-4,1.241746 -0.04497,0.403306 -0.123111,0.632037 -0.247612,0.72481 -0.09447,0.0704 -0.327771,0.112013 -0.420474,0.07501 z"
   style="fill:#ffffff;stroke-width:0.0352941" /><path
   id="path160"
   d="m 18.150932,20.385146 c -0.06081,-0.05117 -0.135306,-0.160084 -0.165543,-0.242032 -0.157359,-0.426466 -0.167371,-1.633652 -0.01815,-2.187832 0.0215,-0.07982 0.09166,-0.197713 0.155919,-0.261974 0.09471,-0.09471 0.144572,-0.116837 0.263297,-0.116837 0.227329,0 0.347332,0.08214 0.454814,0.3113 l 0.09402,0.200464 -5.5e-4,0.935294 c -5.16e-4,0.877837 -0.0051,0.945052 -0.07516,1.094118 -0.108395,0.230749 -0.225147,0.3247 -0.427685,0.344161 -0.146025,0.01403 -0.186219,0.0031 -0.280969,-0.07666 z"
   style="fill:#ffffff;stroke-width:0.0352941" /></svg>
