<?xml version="1.0" encoding="UTF-8" standalone="no"?>
<svg
   xmlns:dc="http://purl.org/dc/elements/1.1/"
   xmlns:cc="http://creativecommons.org/ns#"
   xmlns:rdf="http://www.w3.org/1999/02/22-rdf-syntax-ns#"
   xmlns:svg="http://www.w3.org/2000/svg"
   xmlns="http://www.w3.org/2000/svg"
   xmlns:sodipodi="http://sodipodi.sourceforge.net/DTD/sodipodi-0.dtd"
   xmlns:inkscape="http://www.inkscape.org/namespaces/inkscape"
   inkscape:version="1.0 (4035a4fb49, 2020-05-01)"
   sodipodi:docname="wi-strong-wind.svg"
   xml:space="preserve"
   style="enable-background:new 0 0 30 30;"
   viewBox="0 0 30 30"
   y="0px"
   x="0px"
   id="Layer_1"
   version="1.1"><metadata
   id="metadata132"><rdf:RDF><cc:Work
       rdf:about=""><dc:format>image/svg+xml</dc:format><dc:type
         rdf:resource="http://purl.org/dc/dcmitype/StillImage" /></cc:Work></rdf:RDF></metadata><defs
   id="defs130" /><sodipodi:namedview
   inkscape:current-layer="Layer_1"
   inkscape:window-maximized="1"
   inkscape:window-y="-8"
   inkscape:window-x="-8"
   inkscape:cy="15"
   inkscape:cx="15"
   inkscape:zoom="28.333333"
   showgrid="false"
   id="namedview128"
   inkscape:window-height="1017"
   inkscape:window-width="1920"
   inkscape:pageshadow="2"
   inkscape:pageopacity="0"
   guidetolerance="10"
   gridtolerance="10"
   objecttolerance="10"
   borderopacity="1"
   bordercolor="#666666"
   pagecolor="#ffffff" />
<path
   id="path125"
   d="M3.1,16.97c0,0.24,0.09,0.45,0.28,0.62c0.16,0.19,0.37,0.28,0.63,0.28H18.7c0.29,0,0.53,0.1,0.73,0.3  c0.2,0.2,0.3,0.45,0.3,0.74c0,0.29-0.1,0.53-0.3,0.72c-0.2,0.19-0.44,0.29-0.74,0.29c-0.29,0-0.54-0.1-0.73-0.29  c-0.16-0.18-0.36-0.26-0.6-0.26c-0.25,0-0.46,0.09-0.64,0.26s-0.27,0.38-0.27,0.61c0,0.25,0.09,0.46,0.28,0.63  c0.56,0.55,1.22,0.83,1.96,0.83c0.78,0,1.45-0.27,2.01-0.81c0.56-0.54,0.83-1.19,0.83-1.97s-0.28-1.44-0.84-2  c-0.56-0.56-1.23-0.84-2-0.84H4.01c-0.25,0-0.46,0.09-0.64,0.26C3.19,16.51,3.1,16.72,3.1,16.97z M3.1,13.69  c0,0.23,0.09,0.43,0.28,0.61c0.17,0.18,0.38,0.26,0.63,0.26h20.04c0.78,0,1.45-0.27,2.01-0.82c0.56-0.54,0.84-1.2,0.84-1.97  c0-0.77-0.28-1.44-0.84-1.99s-1.23-0.83-2.01-0.83c-0.77,0-1.42,0.27-1.95,0.8c-0.18,0.16-0.27,0.38-0.27,0.67  c0,0.26,0.09,0.47,0.26,0.63c0.17,0.16,0.38,0.24,0.63,0.24c0.24,0,0.45-0.08,0.63-0.24c0.19-0.21,0.42-0.31,0.7-0.31  c0.29,0,0.53,0.1,0.73,0.3c0.2,0.2,0.3,0.44,0.3,0.73c0,0.29-0.1,0.53-0.3,0.72c-0.2,0.19-0.44,0.29-0.73,0.29H4.01  c-0.25,0-0.46,0.09-0.64,0.26C3.19,13.23,3.1,13.44,3.1,13.69z" />
<path
   id="path134"
   d="m 3.6526843,14.458189 c -0.324011,-0.150884 -0.5237942,-0.449144 -0.5236177,-0.781718 1.702e-4,-0.320658 0.1865672,-0.623797 0.4835023,-0.786325 0.1040307,-0.05694 0.753489,-0.06184 10.3991961,-0.07838 L 24.3,12.794118 l 0.176471,-0.08115 c 0.21018,-0.09666 0.418375,-0.289027 0.523325,-0.483552 0.110491,-0.204793 0.109772,-0.713453 -0.0013,-0.921758 -0.118889,-0.222959 -0.233941,-0.342367 -0.439691,-0.456338 -0.169444,-0.09386 -0.219892,-0.104244 -0.505861,-0.104123 -0.358849,1.52e-4 -0.428012,0.0267 -0.720906,0.276709 -0.216262,0.184597 -0.415829,0.249258 -0.704794,0.228356 -0.536726,-0.03882 -0.877629,-0.534227 -0.74579,-1.083791 0.09804,-0.408684 0.747477,-0.9081042 1.437044,-1.1050966 0.39503,-0.1128505 1.075884,-0.1122506 1.473625,0.0013 0.962374,0.2747423 1.747718,1.0624406 2.001567,2.0075646 0.10159,0.378241 0.101798,1.011143 4.55e-4,1.39203 -0.271158,1.019132 -1.215995,1.86993 -2.264731,2.039325 -0.156426,0.02527 -3.485721,0.03703 -10.464706,0.03698 l -10.2352939,-7e-5 -0.1767275,-0.0823 z"
   style="fill:#ffffff;stroke-width:0.0352941" /><path
   id="path136"
   d="m 18.035294,21.598632 c -0.36007,-0.09259 -0.777731,-0.309948 -1.085402,-0.564854 -0.358866,-0.297321 -0.446142,-0.440193 -0.460673,-0.754124 -0.0107,-0.231193 -0.0027,-0.265002 0.105706,-0.444135 0.296705,-0.490488 0.911814,-0.589097 1.32114,-0.211794 0.243057,0.224042 0.436149,0.298749 0.77217,0.298749 0.213005,0 0.322423,-0.0184 0.445497,-0.07491 0.234822,-0.107819 0.434211,-0.302956 0.524856,-0.513665 0.06666,-0.154962 0.07655,-0.229995 0.06424,-0.487461 -0.0169,-0.353396 -0.1054,-0.543765 -0.350226,-0.753327 -0.296014,-0.253378 0.35205,-0.23429 -7.954838,-0.23429 -8.4163043,0 -7.7121284,0.02397 -7.9993954,-0.272316 -0.2247994,-0.231858 -0.2894397,-0.372104 -0.289304,-0.627684 1.757e-4,-0.330951 0.1765453,-0.599386 0.5155274,-0.784635 0.1082616,-0.05916 0.5162117,-0.06242 7.808347,-0.06242 7.345036,0 7.704434,0.0029 7.921488,0.06449 0.536753,0.152238 0.940781,0.399822 1.347266,0.82559 0.596077,0.624355 0.84388,1.337061 0.767353,2.206981 -0.09975,1.133927 -0.967289,2.114809 -2.113436,2.38956 -0.39666,0.09509 -0.971102,0.09519 -1.340318,2.47e-4 z"
   style="fill:#ffffff;stroke-width:0.0352941" /></svg>
