<?xml version="1.0" encoding="UTF-8" standalone="no"?>
<svg
   xmlns:dc="http://purl.org/dc/elements/1.1/"
   xmlns:cc="http://creativecommons.org/ns#"
   xmlns:rdf="http://www.w3.org/1999/02/22-rdf-syntax-ns#"
   xmlns:svg="http://www.w3.org/2000/svg"
   xmlns="http://www.w3.org/2000/svg"
   xmlns:sodipodi="http://sodipodi.sourceforge.net/DTD/sodipodi-0.dtd"
   xmlns:inkscape="http://www.inkscape.org/namespaces/inkscape"
   inkscape:version="1.0 (4035a4fb49, 2020-05-01)"
   sodipodi:docname="wi-thermometer.svg"
   xml:space="preserve"
   style="enable-background:new 0 0 30 30;"
   viewBox="0 0 30 30"
   y="0px"
   x="0px"
   id="Layer_1"
   version="1.1"><metadata
   id="metadata110"><rdf:RDF><cc:Work
       rdf:about=""><dc:format>image/svg+xml</dc:format><dc:type
         rdf:resource="http://purl.org/dc/dcmitype/StillImage" /></cc:Work></rdf:RDF></metadata><defs
   id="defs108" /><sodipodi:namedview
   inkscape:current-layer="Layer_1"
   inkscape:window-maximized="1"
   inkscape:window-y="-8"
   inkscape:window-x="-8"
   inkscape:cy="15"
   inkscape:cx="15"
   inkscape:zoom="28.333333"
   showgrid="false"
   id="namedview106"
   inkscape:window-height="1017"
   inkscape:window-width="1920"
   inkscape:pageshadow="2"
   inkscape:pageopacity="0"
   guidetolerance="10"
   gridtolerance="10"
   objecttolerance="10"
   borderopacity="1"
   bordercolor="#666666"
   pagecolor="#ffffff" />
<path
   id="path103"
   d="M9.91,19.56c0-0.85,0.2-1.64,0.59-2.38s0.94-1.35,1.65-1.84V5.42c0-0.8,0.27-1.48,0.82-2.03S14.2,2.55,15,2.55  c0.81,0,1.49,0.28,2.04,0.83c0.55,0.56,0.83,1.23,0.83,2.03v9.92c0.71,0.49,1.25,1.11,1.64,1.84s0.58,1.53,0.58,2.38  c0,0.92-0.23,1.78-0.68,2.56s-1.07,1.4-1.85,1.85s-1.63,0.68-2.56,0.68c-0.92,0-1.77-0.23-2.55-0.68s-1.4-1.07-1.86-1.85  S9.91,20.48,9.91,19.56z M11.67,19.56c0,0.93,0.33,1.73,0.98,2.39c0.65,0.66,1.44,0.99,2.36,0.99c0.93,0,1.73-0.33,2.4-1  s1.01-1.46,1.01-2.37c0-0.62-0.16-1.2-0.48-1.73c-0.32-0.53-0.76-0.94-1.32-1.23l-0.28-0.14c-0.1-0.04-0.15-0.14-0.15-0.29V5.42  c0-0.32-0.11-0.59-0.34-0.81C15.62,4.4,15.34,4.29,15,4.29c-0.32,0-0.6,0.11-0.83,0.32c-0.23,0.21-0.34,0.48-0.34,0.81v10.74  c0,0.15-0.05,0.25-0.14,0.29l-0.27,0.14c-0.55,0.29-0.98,0.7-1.29,1.23C11.82,18.35,11.67,18.92,11.67,19.56z M12.45,19.56  c0,0.71,0.24,1.32,0.73,1.82s1.07,0.75,1.76,0.75s1.28-0.25,1.79-0.75c0.51-0.5,0.76-1.11,0.76-1.81c0-0.63-0.22-1.19-0.65-1.67  c-0.43-0.48-0.96-0.77-1.58-0.85V9.69c0-0.06-0.03-0.13-0.1-0.19c-0.07-0.07-0.14-0.1-0.22-0.1c-0.09,0-0.16,0.03-0.21,0.08  c-0.05,0.06-0.08,0.12-0.08,0.21v7.34c-0.61,0.09-1.13,0.37-1.56,0.85C12.66,18.37,12.45,18.92,12.45,19.56z" />
<path
   id="path112"
   d="m 14.658875,22.091446 c -0.615499,-0.06054 -1.183203,-0.378377 -1.618536,-0.906152 -0.682689,-0.827656 -0.76132,-2.055086 -0.188435,-2.941451 0.387451,-0.599462 0.990696,-1.029477 1.627508,-1.160146 l 0.202941,-0.04164 V 13.30338 c 0,-3.6916153 8.88e-4,-3.7395626 0.07059,-3.8092624 0.10466,-0.1046597 0.267262,-0.091109 0.39095,0.032579 l 0.103168,0.1031675 v 3.7177419 3.717742 l 0.273529,0.06157 c 0.511165,0.11507 1.038578,0.453218 1.378151,0.883594 0.232402,0.294546 0.336886,0.483128 0.453711,0.818896 0.08896,0.255675 0.09815,0.327371 0.09727,0.758823 -8.75e-4,0.427365 -0.01103,0.505536 -0.09853,0.758485 -0.128507,0.371482 -0.301631,0.652446 -0.584445,0.948499 -0.586227,0.613667 -1.284043,0.877261 -2.107863,0.796227 z"
   style="fill:#ffffff;stroke-width:0.0352941" /><path
   id="path114"
   d="m 14.490782,24.597574 c -1.611051,-0.165597 -3.038155,-1.087258 -3.883198,-2.507875 -0.8443882,-1.419514 -0.89874,-3.27533 -0.140512,-4.79773 0.303026,-0.608428 0.898502,-1.327716 1.446931,-1.747779 l 0.262468,-0.201034 v -5.131889 c 0,-5.6495593 -0.0098,-5.3830448 0.217163,-5.9297794 0.268339,-0.6465209 0.87306,-1.23959 1.540458,-1.5107782 0.53216,-0.2162358 1.366609,-0.2552408 1.89532,-0.088594 1.070014,0.3372637 1.838545,1.2288858 1.992822,2.3120018 0.02205,0.1548 0.03545,2.1334871 0.03589,5.2987008 l 7e-4,5.051642 0.196874,0.148642 c 2.264414,1.709649 2.681205,4.972174 0.921074,7.209913 -1.052167,1.33767 -2.784821,2.069419 -4.48599,1.894559 z m 1.243059,-1.711869 c 0.634766,-0.129432 1.242099,-0.474707 1.731281,-0.98425 0.49864,-0.519395 0.777006,-1.033473 0.907,-1.675023 0.08239,-0.406592 0.0562,-1.178613 -0.05268,-1.55347 C 18.042,17.717854 17.436307,16.997483 16.525182,16.538991 16.348206,16.449935 16.257406,16.381688 16.234005,16.320139 16.212721,16.264157 16.2,14.165813 16.2,10.710791 16.2,5.2699705 16.198985,5.1881693 16.129129,5.0014647 15.847962,4.2499787 14.792308,4.0261598 14.177835,4.5877531 14.059183,4.6961947 13.953643,4.8343799 13.901711,4.9492902 L 13.817647,5.1352941 13.8,10.729412 c -0.0097,3.076764 -0.03072,5.614326 -0.04669,5.639025 -0.01597,0.0247 -0.127149,0.09437 -0.247059,0.15483 -0.927258,0.467518 -1.543365,1.255542 -1.775437,2.270851 -0.101064,0.442152 -0.08627,1.201537 0.0321,1.64771 0.159104,0.599725 0.432274,1.069281 0.89003,1.529888 0.468679,0.471596 1.026511,0.784717 1.62353,0.911317 0.338739,0.07183 1.111258,0.07325 1.45737,0.0027 z"
   style="fill:#ffffff;stroke-width:0.0352941" /></svg>
